<svg width="64" height="11" viewBox="0 0 64 11" fill="none" xmlns="http://www.w3.org/2000/svg">
<path d="M2.50665 10V2.314L0.798648 2.734L0.350648 0.969999L3.16465 0.129999H4.63465V10H2.50665ZM11.4929 10V7.886H6.7049L6.3549 6.36L11.7309 0.129999H13.5509V6.136H14.8669V7.886H13.5509V10H11.4929ZM8.8889 6.136H11.4929V3.084L8.8889 6.136ZM21.1452 10V7.886H16.3572L16.0072 6.36L21.3832 0.129999H23.2032V6.136H24.5192V7.886H23.2032V10H21.1452ZM18.5412 6.136H21.1452V3.084L18.5412 6.136ZM30.1089 10V8.292L33.3709 5.618C34.0149 5.09533 34.4582 4.67067 34.7009 4.344C34.9435 4.01733 35.0649 3.658 35.0649 3.266C35.0649 2.85533 34.9435 2.54267 34.7009 2.328C34.4675 2.104 34.1502 1.992 33.7489 1.992C33.3849 1.992 33.0535 2.09467 32.7549 2.3C32.4655 2.496 32.1295 2.832 31.7469 3.308L30.2349 2.09C30.7575 1.39 31.2895 0.876666 31.8309 0.55C32.3722 0.223333 33.0582 0.0599995 33.8889 0.0599995C34.8969 0.0599995 35.7089 0.335333 36.3249 0.886C36.9502 1.43667 37.2629 2.16933 37.2629 3.084V3.112C37.2629 3.87733 37.0762 4.512 36.7029 5.016C36.3295 5.52 35.6575 6.15 34.6869 6.906L33.0909 8.138H37.3609V10H30.1089ZM42.4995 10.168C40.8942 10.168 39.6202 9.60333 38.6775 8.474L40.1615 7.06C40.8428 7.844 41.6315 8.236 42.5275 8.236C42.9475 8.236 43.2835 8.12867 43.5355 7.914C43.7875 7.69933 43.9135 7.41 43.9135 7.046V7.018C43.9135 6.61667 43.7455 6.30867 43.4095 6.094C43.0735 5.87933 42.6022 5.772 41.9955 5.772H41.0995L40.7635 4.4L43.1015 2.048H39.2515V0.199999H45.8735V1.824L43.3955 4.19C45.1502 4.48867 46.0275 5.40333 46.0275 6.934V6.962C46.0275 7.90467 45.7055 8.67467 45.0615 9.272C44.4268 9.86933 43.5728 10.168 42.4995 10.168ZM51.0425 10.168C49.6238 10.168 48.4011 9.678 47.3745 8.698L48.6765 7.144C49.4605 7.85333 50.2398 8.208 51.0145 8.208C51.5278 8.208 51.9291 8.09133 52.2185 7.858C52.5078 7.62467 52.6525 7.28867 52.6525 6.85V6.822C52.6525 6.41133 52.4938 6.08933 52.1765 5.856C51.8591 5.61333 51.4391 5.492 50.9165 5.492C50.3565 5.492 49.8105 5.61333 49.2785 5.856L48.0325 5.03L48.3125 0.199999H54.3325V2.09H50.1605L50.0485 3.784C50.4965 3.672 50.9258 3.616 51.3365 3.616C52.3538 3.616 53.1798 3.87733 53.8145 4.4C54.4491 4.92267 54.7665 5.70667 54.7665 6.752V6.78C54.7665 7.816 54.4258 8.642 53.7445 9.258C53.0725 9.86467 52.1718 10.168 51.0425 10.168ZM56.8508 10V0.00399935H60.0428C61.3308 0.00399935 62.2688 0.265333 62.8568 0.787999C63.4542 1.31067 63.7528 2.02933 63.7528 2.944C63.7528 3.48533 63.6315 3.994 63.3888 4.47C63.1462 4.946 62.7402 5.32867 62.1708 5.618C61.6108 5.90733 60.8455 6.052 59.8748 6.052H58.9648V10H56.8508ZM55.7308 8.502V7.144H61.1208V8.502H55.7308ZM55.7308 6.052V4.316H59.8328V6.052H55.7308ZM59.6648 4.316C60.0662 4.316 60.4115 4.274 60.7008 4.19C60.9902 4.09667 61.2142 3.952 61.3728 3.756C61.5315 3.56 61.6108 3.31267 61.6108 3.014C61.6108 2.58467 61.4755 2.26733 61.2048 2.062C60.9342 1.84733 60.5095 1.74 59.9308 1.74H58.9648V4.316H59.6648Z" fill="#1551E5"/>
</svg>
